<?xml version="1.0" encoding="utf-8"?>
<!-- Generator: Adobe Illustrator 16.0.0, SVG Export Plug-In . SVG Version: 6.00 Build 0)  -->
<!DOCTYPE svg PUBLIC "-//W3C//DTD SVG 1.1//EN" "http://www.w3.org/Graphics/SVG/1.1/DTD/svg11.dtd">
<svg version="1.1" id="Layer_1" xmlns="http://www.w3.org/2000/svg" xmlns:xlink="http://www.w3.org/1999/xlink" x="0px" y="0px"
	 width="300px" height="300px" viewBox="0 0 300 300" enable-background="new 0 0 300 300" xml:space="preserve">
<rect x="300" fill="#838384" width="300" height="300"/>
<rect fill="#9FC5E7" width="300" height="300"/>
<g>
	<path fill="#FFFFFF" d="M409.791,73.203c0-1.354,1.082-1.986,2.166-1.986h14.079c10.378,0,18.501,2.527,18.501,15.162
		c0,7.761-3.068,13.085-7.672,15.071c5.596,2.347,9.297,6.408,9.297,15.704v1.625c0,13.627-7.763,18.41-17.78,18.41h-16.425
		c-1.354,0-2.166-0.902-2.166-1.896V73.203z M414.303,99.375h12.184c9.206,0,13.538-3.068,13.538-12.635
		c0-9.296-5.776-11.191-13.899-11.191h-11.822V99.375z M428.021,132.857c8.482,0,13.628-4.333,13.628-14.259v-1.535
		c0-9.927-5.146-13.537-13.628-13.537h-13.719v29.331H428.021z"/>
	<path fill="#FFFFFF" d="M488.848,135.204c0-0.181,0-0.361,0.09-0.542L508.252,72.3c0.361-1.083,1.354-1.625,2.527-1.625
		c1.082,0,2.164,0.542,2.527,1.625l19.131,62.362c0,0.181,0.092,0.271,0.092,0.542c0,1.083-1.355,1.985-2.619,1.985
		c-0.811,0-1.533-0.361-1.805-1.354l-4.422-14.35h-25.992l-4.33,14.35c-0.363,0.993-1.084,1.354-1.986,1.354
		C490.203,137.189,488.848,136.467,488.848,135.204z M522.42,117.334l-11.641-38.536l-11.914,38.536H522.42z"/>
	<path fill="#FFFFFF" d="M427.57,176.463c-9.025,0-13.898,4.603-13.898,14.62v28.61c0,10.107,4.873,14.619,14.168,14.619
		c11.372,0,12.455-6.948,13.178-11.461c0.09-1.083,0.632-1.896,2.165-1.896c1.534,0,2.347,0.541,2.347,3.068
		c0,7.49-6.498,14.62-18.23,14.62c-9.928,0-18.14-5.144-18.14-18.951v-28.61c0-13.808,8.393-18.951,18.411-18.951
		c11.642,0,17.959,7.039,17.959,14.62c0,2.437-0.812,2.978-2.256,2.978c-1.805,0-2.256-0.992-2.256-1.896
		C440.746,183.684,438.761,176.463,427.57,176.463z"/>
	<path fill="#FFFFFF" d="M493.811,174.026c0-1.354,1.176-1.895,2.256-1.895c1.176,0,2.258,0.541,2.258,1.895v33.754l27.707-34.927
		c0.359-0.542,0.992-0.722,1.533-0.722c1.174,0,2.438,1.173,2.438,2.346c0,0.361-0.09,0.812-0.451,1.083l-20.125,25.089
		l22.742,34.296c0.271,0.271,0.361,0.631,0.361,0.991c0,1.174-1.266,2.257-2.527,2.257c-0.631,0-1.264-0.361-1.715-1.083
		l-21.842-32.67l-8.121,10.108v21.569c0,1.354-1.082,1.985-2.258,1.985c-1.08,0-2.256-0.632-2.256-1.985V174.026z"/>
</g>
<g>
	<path fill="#FFFFFF" d="M69.114,72.43c0-1.366,1.093-2.003,2.185-2.003h32.322c1.274,0,1.912,1.093,1.912,2.094
		c0,1.183-0.729,2.276-1.912,2.276H73.666v26.768h14.477c1.184,0,1.912,1.001,1.912,2.185c0,0.91-0.546,2.003-1.912,2.003H73.666
		v29.316c0,1.366-1.092,1.912-2.276,1.912c-1.093,0-2.276-0.546-2.276-1.912V72.43z"/>
	<path fill="#FFFFFF" d="M154.059,72.338c0-1.001,0.729-1.912,2.004-1.912h15.568c10.289,0,19.211,4.279,19.211,17.663
		c0,11.472-6.557,16.207-14.84,17.39l14.566,28.224c0.182,0.364,0.273,0.729,0.273,1.093c0,1.184-0.91,2.276-2.459,2.276
		c-1.092,0-2.094-1.821-2.822-3.187l-14.295-27.951h-12.654v29.044c0,1.365-1.092,2.003-2.275,2.003
		c-1.094,0-2.277-0.638-2.277-2.003V72.338z M158.611,74.797v26.949h13.02c8.648,0,14.658-3.824,14.658-13.565
		c0-9.651-6.01-13.384-14.658-13.384H158.611z"/>
	<path fill="#FFFFFF" d="M100.434,235.418l-26.768-52.442v53.809c0,1.365-1.092,2.003-2.276,2.003c-1.093,0-2.276-0.638-2.276-2.003
		v-62.64c0-1.456,1.093-1.912,2.276-1.912c1.639,0,2.913,2.186,3.733,3.732l26.312,51.988v-53.809c0-1.365,1.184-1.912,2.276-1.912
		c1.183,0,2.276,0.546,2.276,1.912v62.64c0,1.365-1.093,2.003-2.276,2.003C102.346,238.787,101.253,236.967,100.434,235.418z"/>
	<path fill="#FFFFFF" d="M188.93,172.232c1.275,0,1.912,1.002,1.912,2.094c0,1.093-0.547,2.275-1.912,2.275h-15.66v60.183
		c0,1.365-1.184,2.003-2.277,2.003c-1.184,0-2.275-0.638-2.275-2.003v-60.183h-15.842c-1.184,0-1.913-1.091-1.913-2.184
		c0-1.094,0.729-2.187,1.913-2.187L188.93,172.232L188.93,172.232z"/>
</g>
<g>
	<path fill="#FFFFFF" d="M302.055,180.726c-13.866,0-25.146-11.28-25.146-25.144c0-13.865,11.28-25.146,25.146-25.146
		c13.865,0,25.146,11.28,25.146,25.146S315.92,180.726,302.055,180.726z M302.055,133.326c-12.272,0-22.258,9.984-22.258,22.257
		c0,12.271,9.985,22.255,22.258,22.255s22.257-9.984,22.257-22.255C324.312,143.311,314.327,133.326,302.055,133.326z"/>
	<path fill="#FFFFFF" d="M302.055,174.781c-10.586,0-19.197-8.612-19.197-19.198c0-10.587,8.611-19.199,19.197-19.199
		s19.196,8.612,19.196,19.199C321.251,166.169,312.641,174.781,302.055,174.781z M302.055,139.271
		c-8.992,0-16.31,7.316-16.31,16.312c0,8.993,7.317,16.31,16.31,16.31s16.309-7.316,16.309-16.31
		C318.363,146.588,311.047,139.271,302.055,139.271z"/>
	<path fill="#FFFFFF" d="M349.715,188.893h-99.43c-0.797,0-1.443-0.647-1.443-1.444v-66.05c0-0.797,0.646-1.444,1.443-1.444h99.43
		c0.797,0,1.444,0.647,1.444,1.444v66.049C351.159,188.245,350.512,188.893,349.715,188.893z M251.729,186.004h96.542v-63.161
		h-96.542V186.004z"/>
	<path fill="#FFFFFF" d="M344.34,139.591h-16.747c-0.798,0-1.444-0.647-1.444-1.444v-11.058c0-0.797,0.646-1.444,1.444-1.444h16.747
		c0.798,0,1.445,0.647,1.445,1.444v11.058C345.785,138.944,345.138,139.591,344.34,139.591z M329.037,136.702h13.859v-8.169h-13.859
		V136.702z"/>
	<path fill="#FFFFFF" d="M272.697,135.232h-10.148c-0.798,0-1.445-0.646-1.445-1.444v-6.699c0-0.797,0.647-1.444,1.445-1.444h10.148
		c0.798,0,1.445,0.647,1.445,1.444v6.699C274.143,134.586,273.495,135.232,272.697,135.232z M263.992,132.344h7.262v-3.811h-7.262
		V132.344z"/>
	<path fill="#FFFFFF" d="M349.715,122.843h-70.987c-0.798,0-1.444-0.646-1.444-1.444v-8.847c0-0.797,0.646-1.444,1.444-1.444h70.987
		c0.797,0,1.444,0.647,1.444,1.444v8.847C351.159,122.197,350.512,122.843,349.715,122.843z M280.172,119.954h68.1v-5.959h-68.1
		V119.954z"/>
	<path fill="#FFFFFF" d="M258.164,122.843h-5.055c-0.797,0-1.444-0.646-1.444-1.444v-6.951c0-0.797,0.647-1.444,1.444-1.444h5.055
		c0.797,0,1.443,0.647,1.443,1.444v6.951C259.607,122.197,258.961,122.843,258.164,122.843z M254.553,119.954h2.167v-4.062h-2.167
		V119.954z"/>
	<path fill="#FFFFFF" d="M274.6,122.843h-12.959c-0.797,0-1.443-0.646-1.443-1.444v-6.951c0-0.797,0.646-1.444,1.443-1.444h12.96
		c0.798,0,1.444,0.647,1.444,1.444v6.951C276.044,122.197,275.398,122.843,274.6,122.843z M263.086,119.954h10.07v-4.062h-10.07
		V119.954z"/>
	<path fill="#FFFFFF" d="M269.812,160.488c-2.418,0-4.383-1.962-4.383-4.374c0-2.415,1.965-4.379,4.383-4.379
		c2.413,0,4.377,1.964,4.377,4.379C274.189,158.526,272.226,160.488,269.812,160.488z M269.812,154.624
		c-0.824,0-1.494,0.669-1.494,1.49c0,0.819,0.67,1.485,1.494,1.485c0.82,0,1.488-0.666,1.488-1.485
		C271.301,155.293,270.633,154.624,269.812,154.624z"/>
	<path fill="#FFFFFF" d="M349.715,144.018h-27.656c-0.797,0-1.444-0.646-1.444-1.444c0-0.797,0.647-1.443,1.444-1.443h27.656
		c0.797,0,1.444,0.646,1.444,1.443C351.159,143.371,350.512,144.018,349.715,144.018z"/>
	<path fill="#FFFFFF" d="M281.277,144.018h-30.344c-0.797,0-1.443-0.646-1.443-1.444c0-0.797,0.646-1.443,1.443-1.443h30.344
		c0.797,0,1.444,0.646,1.444,1.443C282.722,143.371,282.074,144.018,281.277,144.018z"/>
</g>
</svg>
